# xmcd CD database file
# Copyright (C) 1993-1998 Ti Kan
#
# Track frame offsets:
#	225
#	12587
#	24367
#	39630
#	51207
#	63260
#	77980
#	91385
#	106870
#	117905
#	130240
#
# Disc length: 1880 seconds
#
# Revision: 1
# Processed by: cddbd v1.4b41PL1 Copyright (c) Steve Scherf et al.
# Submitted via: CDValet v3.01 - Copyright (c) 1997 Greg Leichner
#
DISCID=8c07550b
DTITLE=Aaron Neville - Tell It Like It Is
DYEAR=1900
DGENRE=
TTITLE0=Tell It Like It Is
TTITLE1=Why Worry
TTITLE2=She Took You For A Ride
TTITLE3=A Hard Nut To Crack
TTITLE4=You Think You're So Smart
TTITLE5=Jailhouse
TTITLE6=Bet You're Surprised
TTITLE7=Love, Love, Love
TTITLE8=Since You're Gone
TTITLE9=Space Man
TTITLE10=Hold On, Help Is On The Way
EXTD=
EXTT0=
EXTT1=
EXTT2=
EXTT3=
EXTT4=
EXTT5=
EXTT6=
EXTT7=
EXTT8=
EXTT9=
EXTT10=
PLAYORDER=
